<svg width="24" height="25" viewBox="0 0 24 25" fill="none" xmlns="http://www.w3.org/2000/svg">
<path d="M19 3C21.7614 3 24 5.23858 24 8V20C24 22.7614 21.7614 25 19 25H5C2.23858 25 8.05346e-08 22.7614 0 20V8C2.57711e-07 5.23858 2.23858 3 5 3H19ZM18.8223 7.84961C18.3373 7.74069 17.856 8.04534 17.7471 8.53027C17.4285 9.9485 16.8908 12.3178 16.4629 14.2119C16.2866 13.2851 16.1196 12.4162 16.0273 11.9805C15.9764 11.7398 15.8939 11.4394 15.7188 11.2021C15.6231 11.0727 15.4371 10.8776 15.1338 10.8018C14.8056 10.7199 14.5254 10.822 14.3506 10.9346C14.0717 11.1143 13.9338 11.3941 13.8857 11.4941C13.815 11.6415 13.7633 11.7962 13.7275 11.9229L13.7188 11.9512L13.7129 11.9805C13.6836 12.1187 13.6251 12.3669 13.5459 12.7012C13.379 11.9326 13.1888 11.1378 13.002 10.5391C12.8969 10.2025 12.7485 9.84806 12.5 9.59375C12.3631 9.45373 12.1613 9.30895 11.8906 9.25586C11.6105 9.20091 11.3589 9.26422 11.1689 9.36328C10.8428 9.53342 10.6581 9.827 10.5713 9.98145C10.4658 10.1693 10.3875 10.3706 10.335 10.5391L10.3281 10.5605L10.3223 10.583C10.128 11.3366 9.79426 12.6105 9.50879 13.6738C9.26505 12.9886 9.01977 12.2896 8.88672 11.8857C8.79619 11.6109 8.63776 11.2891 8.33398 11.0693C7.98215 10.8148 7.58637 10.8027 7.27344 10.9004C6.99958 10.986 6.79358 11.1495 6.66504 11.2715C6.52766 11.4018 6.41538 11.5454 6.33203 11.6719L5.64941 12.707H4C3.50294 12.707 3.09961 13.1104 3.09961 13.6074C3.09976 14.1043 3.50304 14.5068 4 14.5068H6.61914L6.88574 14.1025L7.44922 13.2461C7.75215 14.1154 8.15874 15.248 8.37109 15.834L8.37598 15.8467C8.42546 15.9769 8.49848 16.1335 8.5957 16.2822C8.67592 16.4049 8.85037 16.6457 9.14648 16.7842C9.31545 16.8632 9.53813 16.915 9.78711 16.8701C10.0333 16.8258 10.2227 16.7017 10.3555 16.5732C10.5923 16.344 10.7146 16.0369 10.79 15.7891C10.9665 15.2087 11.343 13.7848 11.667 12.5498C11.896 13.5445 12.1018 14.6137 12.2041 15.2002V15.2012L12.2051 15.2061C12.2372 15.3846 12.2869 15.598 12.3584 15.7969C12.3941 15.8962 12.4419 16.0112 12.5059 16.123C12.5637 16.2243 12.6692 16.3848 12.8438 16.5156C13.0435 16.6653 13.3605 16.788 13.7266 16.6895C14.0423 16.6044 14.2356 16.3941 14.334 16.2627C14.5273 16.0042 14.6523 15.6473 14.751 15.2812C14.7676 15.2196 14.7827 15.1581 14.7988 15.0977C14.9551 15.9244 15.1084 16.7428 15.21 17.291L15.2139 17.3105L15.2188 17.3311C15.2526 17.4766 15.3035 17.6522 15.373 17.8184C15.4078 17.9015 15.4547 17.9996 15.5166 18.0967C15.5727 18.1846 15.6749 18.3269 15.8398 18.4424C16.0246 18.5717 16.3241 18.6868 16.6738 18.5947C16.9849 18.5127 17.1717 18.3073 17.2646 18.1797C17.4417 17.9365 17.5378 17.6176 17.6045 17.3311C17.8585 16.2389 18.9764 11.2689 19.5029 8.9248C19.6119 8.43986 19.3072 7.95857 18.8223 7.84961Z" fill="#01000F" fill-opacity="0.5"/>
<path d="M15.5303 0C17.285 0.000156067 18.8276 0.904787 19.7197 2.27246H4.18848C5.08067 0.904536 6.62393 1.24458e-05 8.37891 0H15.5303Z" fill="#01000F" fill-opacity="0.5"/>
</svg>
