<svg width="25" height="25" viewBox="0 0 25 25" fill="none" xmlns="http://www.w3.org/2000/svg">
<circle cx="12.5" cy="12.5" r="12.5" fill="white"/>
<path d="M9.35 6.875C8.60469 6.875 8 7.50488 8 8.28125V16.7188C8 17.4951 8.60469 18.125 9.35 18.125H10.25C10.9953 18.125 11.6 17.4951 11.6 16.7188V8.28125C11.6 7.50488 10.9953 6.875 10.25 6.875H9.35ZM14.75 6.875C14.0047 6.875 13.4 7.50488 13.4 8.28125V16.7188C13.4 17.4951 14.0047 18.125 14.75 18.125H15.65C16.3953 18.125 17 17.4951 17 16.7188V8.28125C17 7.50488 16.3953 6.875 15.65 6.875H14.75Z" fill="#006FFF"/>
</svg>
