<svg width="10" height="15" viewBox="0 0 10 15" fill="none" xmlns="http://www.w3.org/2000/svg">
<path d="M4.7457 0.920626C6.07319 0.920626 7.13901 1.28441 7.94316 2.01198C8.76008 2.72678 9.16854 3.71601 9.16854 4.97968C9.16854 6.23058 8.76646 7.18791 7.96231 7.85165C7.15816 8.50263 6.09234 8.82812 4.76485 8.82812L4.68826 10.3024H2.33324L2.23751 7.0475H3.0991C4.2096 7.0475 5.06481 6.90071 5.66473 6.60713C6.26465 6.31355 6.56462 5.77745 6.56462 4.99883C6.56462 4.4372 6.39868 3.99045 6.06681 3.65857C5.7477 3.3267 5.30733 3.16076 4.7457 3.16076C4.15854 3.16076 3.69903 3.32032 3.36715 3.63943C3.04805 3.95853 2.88849 4.3989 2.88849 4.96053H0.361156C0.348392 4.18191 0.514328 3.48625 0.858964 2.87357C1.2036 2.26088 1.70779 1.78222 2.37154 1.43758C3.04805 1.09294 3.83943 0.920626 4.7457 0.920626ZM3.50118 14.8784C3.01613 14.8784 2.61406 14.7316 2.29495 14.438C1.98861 14.1317 1.83543 13.7551 1.83543 13.3084C1.83543 12.8616 1.98861 12.4915 2.29495 12.1979C2.61406 11.8916 3.01613 11.7384 3.50118 11.7384C3.97346 11.7384 4.36277 11.8916 4.66911 12.1979C4.97546 12.4915 5.12863 12.8616 5.12863 13.3084C5.12863 13.7551 4.97546 14.1317 4.66911 14.438C4.36277 14.7316 3.97346 14.8784 3.50118 14.8784Z" fill="url(#paint0_linear_11_66)"/>
<defs>
<linearGradient id="paint0_linear_11_66" x1="4.84225" y1="-6.25562" x2="4.84225" y2="17.6775" gradientUnits="userSpaceOnUse">
<stop stop-color="#006EFF"/>
<stop offset="1" stop-color="#7800D3"/>
</linearGradient>
</defs>
</svg>
